# xmcd
#
# Track frame offsets: 
#        150
#        19265
#        34167
#        52437
#        72702
#        88515
#        106205
#        118870
#        131310
#        145010
#
# Disc length: 2184 seconds
#
# Revision: 0
# Processed by: cddbd v1.5.1PL0 Copyright (c) Steve Scherf et al.
# Submitted via: ExactAudioCopy v0.95a5
#
DISCID=9208860a
DTITLE=Crysis - Metabolic State
DYEAR=1996
DGENRE=Death Metal
TTITLE0=Wide Blue Sea
TTITLE1=Standing In The Rain
TTITLE2=Give Your Love To Me
TTITLE3=Stop The Rain
TTITLE4=Slave
TTITLE5=Poison
TTITLE6=Suicide
TTITLE7=Sleep In Your Car
TTITLE8=Sister Mary
TTITLE9=Wonders
EXTD=
EXTT0=
EXTT1=
EXTT2=
EXTT3=
EXTT4=
EXTT5=
EXTT6=
EXTT7=
EXTT8=
EXTT9=
PLAYORDER=
